<svg width="292" height="146" viewBox="0 0 292 146" fill="none" xmlns="http://www.w3.org/2000/svg">
<g clip-path="url(#clip0_111_1954)">
<path d="M0.5 12.0002C0.5 5.37283 5.87258 0.000244141 12.5 0.000244141H279.75C286.377 0.000244141 291.75 5.37283 291.75 12.0002V134C291.75 140.628 286.377 146 279.75 146H12.5C5.87258 146 0.5 140.628 0.5 134V12.0002Z" fill="url(#paint0_radial_111_1954)" fill-opacity="0.3"/>
<g opacity="0.3">
<circle cx="292" cy="137" r="1" transform="rotate(-180 292 137)" fill="#FF8700"/>
<circle cx="282" cy="137" r="1" transform="rotate(-180 282 137)" fill="#FF8700"/>
<circle cx="272" cy="137" r="1" transform="rotate(-180 272 137)" fill="#F95200" fill-opacity="0.1"/>
<circle cx="262" cy="137" r="1" transform="rotate(-180 262 137)" fill="#FF8700"/>
<circle cx="252" cy="137" r="1" transform="rotate(-180 252 137)" fill="#FF8700" fill-opacity="0.1"/>
<circle cx="242" cy="137" r="1" transform="rotate(-180 242 137)" fill="#FF8700"/>
<circle cx="232" cy="137" r="1" transform="rotate(-180 232 137)" fill="#F95200" fill-opacity="0.1"/>
<circle cx="222" cy="137" r="1" transform="rotate(-180 222 137)" fill="#F95200" fill-opacity="0.1"/>
<circle cx="212" cy="137" r="1" transform="rotate(-180 212 137)" fill="#FF8700"/>
<circle cx="202" cy="137" r="1" transform="rotate(-180 202 137)" fill="#FF8700"/>
<circle cx="192" cy="137" r="1" transform="rotate(-180 192 137)" fill="#FF8700" fill-opacity="0.1"/>
<circle cx="182" cy="137" r="1" transform="rotate(-180 182 137)" fill="#F95200" fill-opacity="0.1"/>
<circle cx="172" cy="137" r="1" transform="rotate(-180 172 137)" fill="#FF8700"/>
<circle cx="162" cy="137" r="1" transform="rotate(-180 162 137)" fill="#F95200" fill-opacity="0.1"/>
<circle cx="152" cy="137" r="1" transform="rotate(-180 152 137)" fill="#FF8700"/>
<circle cx="142" cy="137" r="1" transform="rotate(-180 142 137)" fill="#FF8700"/>
<circle cx="132" cy="137" r="1" transform="rotate(-180 132 137)" fill="#F95200" fill-opacity="0.1"/>
<circle cx="122" cy="137" r="1" transform="rotate(-180 122 137)" fill="#FF8700"/>
<circle cx="112" cy="137" r="1" transform="rotate(-180 112 137)" fill="#FF8700" fill-opacity="0.1"/>
<circle cx="102" cy="137" r="1" transform="rotate(-180 102 137)" fill="#FF8700"/>
<circle cx="92" cy="137" r="1" transform="rotate(-180 92 137)" fill="#F95200" fill-opacity="0.1"/>
<circle cx="82" cy="137" r="1" transform="rotate(-180 82 137)" fill="#F95200" fill-opacity="0.1"/>
<circle cx="72" cy="137" r="1" transform="rotate(-180 72 137)" fill="#FF8700"/>
<circle cx="62" cy="137" r="1" transform="rotate(-180 62 137)" fill="#FF8700"/>
<circle cx="52" cy="137" r="1" transform="rotate(-180 52 137)" fill="#FF8700" fill-opacity="0.1"/>
<circle cx="42" cy="137" r="1" transform="rotate(-180 42 137)" fill="#F95200" fill-opacity="0.1"/>
<circle cx="32" cy="137" r="1" transform="rotate(-180 32 137)" fill="#FF8700"/>
<circle cx="22" cy="137" r="1" transform="rotate(-180 22 137)" fill="#F95200" fill-opacity="0.1"/>
<circle cx="12" cy="137" r="1" transform="rotate(-180 12 137)" fill="#FF8700"/>
<circle cx="2" cy="137" r="1" transform="rotate(-180 2 137)" fill="#FF8700"/>
<circle cx="292" cy="127" r="1" transform="rotate(-180 292 127)" fill="#FF8700"/>
<circle cx="282" cy="127" r="1" transform="rotate(-180 282 127)" fill="#F95200" fill-opacity="0.1"/>
<circle cx="272" cy="127" r="1" transform="rotate(-180 272 127)" fill="#FF8700"/>
<circle cx="262" cy="127" r="1" transform="rotate(-180 262 127)" fill="#FF8700" fill-opacity="0.1"/>
<circle cx="252" cy="127" r="1" transform="rotate(-180 252 127)" fill="#FF8700" fill-opacity="0.1"/>
<circle cx="242" cy="127" r="1" transform="rotate(-180 242 127)" fill="#FF8700"/>
<circle cx="232" cy="127" r="1" transform="rotate(-180 232 127)" fill="#F95200" fill-opacity="0.1"/>
<circle cx="222" cy="127" r="1" transform="rotate(-180 222 127)" fill="#FF8700"/>
<circle cx="292" cy="117" r="1" transform="rotate(-180 292 117)" fill="#F95200" fill-opacity="0.1"/>
<circle cx="282" cy="117" r="1" transform="rotate(-180 282 117)" fill="#FF8700"/>
<circle cx="272" cy="117" r="1" transform="rotate(-180 272 117)" fill="#FF8700"/>
<circle cx="262" cy="117" r="1" transform="rotate(-180 262 117)" fill="#FF8700" fill-opacity="0.1"/>
<circle cx="252" cy="117" r="1" transform="rotate(-180 252 117)" fill="#FF8700"/>
<circle cx="242" cy="117" r="1" transform="rotate(-180 242 117)" fill="#F95200" fill-opacity="0.1"/>
<circle cx="232" cy="117" r="1" transform="rotate(-180 232 117)" fill="#FF8700"/>
<circle cx="222" cy="117" r="1" transform="rotate(-180 222 117)" fill="#FF8700" fill-opacity="0.1"/>
<circle cx="292" cy="107" r="1" transform="rotate(-180 292 107)" fill="#FF8700" fill-opacity="0.1"/>
<circle cx="282" cy="107" r="1" transform="rotate(-180 282 107)" fill="#FF8700" fill-opacity="0.1"/>
<circle cx="272" cy="107" r="1" transform="rotate(-180 272 107)" fill="#F95200" fill-opacity="0.1"/>
<circle cx="262" cy="107" r="1" transform="rotate(-180 262 107)" fill="#F95200" fill-opacity="0.1"/>
<circle cx="252" cy="107" r="1" transform="rotate(-180 252 107)" fill="#FF8700"/>
<circle cx="242" cy="107" r="1" transform="rotate(-180 242 107)" fill="#FF8700" fill-opacity="0.1"/>
<circle cx="232" cy="107" r="1" transform="rotate(-180 232 107)" fill="#FF8700"/>
<circle cx="222" cy="107" r="1" transform="rotate(-180 222 107)" fill="#F95200" fill-opacity="0.1"/>
<circle cx="292" cy="97.0002" r="1" transform="rotate(-180 292 97.0002)" fill="#FF8700"/>
<circle cx="282" cy="97.0002" r="1" transform="rotate(-180 282 97.0002)" fill="#FF8700"/>
<circle cx="272" cy="97.0002" r="1" transform="rotate(-180 272 97.0002)" fill="#F95200" fill-opacity="0.1"/>
<circle cx="262" cy="97.0002" r="1" transform="rotate(-180 262 97.0002)" fill="#FF8700"/>
<circle cx="252" cy="97.0002" r="1" transform="rotate(-180 252 97.0002)" fill="#FF8700" fill-opacity="0.1"/>
<circle cx="242" cy="97.0002" r="1" transform="rotate(-180 242 97.0002)" fill="#FF8700"/>
<circle cx="232" cy="97.0002" r="1" transform="rotate(-180 232 97.0002)" fill="#F95200" fill-opacity="0.1"/>
<circle cx="222" cy="97.0002" r="1" transform="rotate(-180 222 97.0002)" fill="#F95200" fill-opacity="0.1"/>
<circle cx="212" cy="127" r="1" transform="rotate(-180 212 127)" fill="#FF8700"/>
<circle cx="202" cy="127" r="1" transform="rotate(-180 202 127)" fill="#FF8700"/>
<circle cx="192" cy="127" r="1" transform="rotate(-180 192 127)" fill="#F95200" fill-opacity="0.1"/>
<circle cx="182" cy="127" r="1" transform="rotate(-180 182 127)" fill="#F95200" fill-opacity="0.1"/>
<circle cx="172" cy="127" r="1" transform="rotate(-180 172 127)" fill="#FF8700"/>
<circle cx="162" cy="127" r="1" transform="rotate(-180 162 127)" fill="#FF8700" fill-opacity="0.1"/>
<circle cx="152" cy="127" r="1" transform="rotate(-180 152 127)" fill="#FF8700"/>
<circle cx="142" cy="127" r="1" transform="rotate(-180 142 127)" fill="#F95200" fill-opacity="0.1"/>
<circle cx="132" cy="127" r="1" transform="rotate(-180 132 127)" fill="#FF8700"/>
<circle cx="122" cy="127" r="1" transform="rotate(-180 122 127)" fill="#FF8700" fill-opacity="0.1"/>
<circle cx="112" cy="127" r="1" transform="rotate(-180 112 127)" fill="#FF8700" fill-opacity="0.1"/>
<circle cx="102" cy="127" r="1" transform="rotate(-180 102 127)" fill="#FF8700"/>
<circle cx="92" cy="127" r="1" transform="rotate(-180 92 127)" fill="#F95200" fill-opacity="0.1"/>
<circle cx="82" cy="127" r="1" transform="rotate(-180 82 127)" fill="#FF8700"/>
<circle cx="212" cy="117" r="1" transform="rotate(-180 212 117)" fill="#FF8700" fill-opacity="0.1"/>
<circle cx="202" cy="117" r="1" transform="rotate(-180 202 117)" fill="#F95200" fill-opacity="0.1"/>
<circle cx="192" cy="117" r="1" transform="rotate(-180 192 117)" fill="#FF8700"/>
<circle cx="182" cy="117" r="1" transform="rotate(-180 182 117)" fill="#F95200" fill-opacity="0.1"/>
<circle cx="172" cy="117" r="1" transform="rotate(-180 172 117)" fill="#FF8700"/>
<circle cx="162" cy="117" r="1" transform="rotate(-180 162 117)" fill="#F95200" fill-opacity="0.1"/>
<circle cx="152" cy="117" r="1" transform="rotate(-180 152 117)" fill="#F95200" fill-opacity="0.1"/>
<circle cx="142" cy="117" r="1" transform="rotate(-180 142 117)" fill="#FF8700"/>
<circle cx="132" cy="117" r="1" transform="rotate(-180 132 117)" fill="#FF8700"/>
<circle cx="122" cy="117" r="1" transform="rotate(-180 122 117)" fill="#FF8700" fill-opacity="0.1"/>
<circle cx="112" cy="117" r="1" transform="rotate(-180 112 117)" fill="#FF8700"/>
<circle cx="102" cy="117" r="1" transform="rotate(-180 102 117)" fill="#F95200" fill-opacity="0.1"/>
<circle cx="92" cy="117" r="1" transform="rotate(-180 92 117)" fill="#FF8700"/>
<circle cx="82" cy="117" r="1" transform="rotate(-180 82 117)" fill="#FF8700" fill-opacity="0.1"/>
<circle cx="212" cy="107" r="1" transform="rotate(-180 212 107)" fill="#FF8700"/>
<circle cx="202" cy="107" r="1" transform="rotate(-180 202 107)" fill="#FF8700" fill-opacity="0.1"/>
<circle cx="192" cy="107" r="1" transform="rotate(-180 192 107)" fill="#FF8700"/>
<circle cx="182" cy="107" r="1" transform="rotate(-180 182 107)" fill="#FF8700" fill-opacity="0.1"/>
<circle cx="172" cy="107" r="1" transform="rotate(-180 172 107)" fill="#F95200" fill-opacity="0.1"/>
<circle cx="162" cy="107" r="1" transform="rotate(-180 162 107)" fill="#FF8700"/>
<circle cx="152" cy="107" r="1" transform="rotate(-180 152 107)" fill="#FF8700" fill-opacity="0.1"/>
<circle cx="142" cy="107" r="1" transform="rotate(-180 142 107)" fill="#FF8700" fill-opacity="0.1"/>
<circle cx="132" cy="107" r="1" transform="rotate(-180 132 107)" fill="#F95200" fill-opacity="0.1"/>
<circle cx="122" cy="107" r="1" transform="rotate(-180 122 107)" fill="#F95200" fill-opacity="0.1"/>
<circle cx="112" cy="107" r="1" transform="rotate(-180 112 107)" fill="#FF8700"/>
<circle cx="102" cy="107" r="1" transform="rotate(-180 102 107)" fill="#FF8700" fill-opacity="0.1"/>
<circle cx="92" cy="107" r="1" transform="rotate(-180 92 107)" fill="#FF8700"/>
<circle cx="82" cy="107" r="1" transform="rotate(-180 82 107)" fill="#F95200" fill-opacity="0.1"/>
<circle cx="212" cy="97.0002" r="1" transform="rotate(-180 212 97.0002)" fill="#FF8700"/>
<circle cx="202" cy="97.0002" r="1" transform="rotate(-180 202 97.0002)" fill="#FF8700"/>
<circle cx="192" cy="97.0002" r="1" transform="rotate(-180 192 97.0002)" fill="#FF8700" fill-opacity="0.1"/>
<circle cx="182" cy="97.0002" r="1" transform="rotate(-180 182 97.0002)" fill="#F95200" fill-opacity="0.1"/>
<circle cx="172" cy="97.0002" r="1" transform="rotate(-180 172 97.0002)" fill="#FF8700"/>
<circle cx="162" cy="97.0002" r="1" transform="rotate(-180 162 97.0002)" fill="#F95200" fill-opacity="0.1"/>
<circle cx="152" cy="97.0002" r="1" transform="rotate(-180 152 97.0002)" fill="#FF8700"/>
<circle cx="142" cy="97.0002" r="1" transform="rotate(-180 142 97.0002)" fill="#FF8700"/>
<circle cx="132" cy="97.0002" r="1" transform="rotate(-180 132 97.0002)" fill="#F95200" fill-opacity="0.1"/>
<circle cx="122" cy="97.0002" r="1" transform="rotate(-180 122 97.0002)" fill="#FF8700"/>
<circle cx="112" cy="97.0002" r="1" transform="rotate(-180 112 97.0002)" fill="#FF8700" fill-opacity="0.1"/>
<circle cx="102" cy="97.0002" r="1" transform="rotate(-180 102 97.0002)" fill="#FF8700"/>
<circle cx="92" cy="97.0002" r="1" transform="rotate(-180 92 97.0002)" fill="#F95200" fill-opacity="0.1"/>
<circle cx="82" cy="97.0002" r="1" transform="rotate(-180 82 97.0002)" fill="#F95200" fill-opacity="0.1"/>
<circle cx="72" cy="127" r="1" transform="rotate(-180 72 127)" fill="#FF8700"/>
<circle cx="62" cy="127" r="1" transform="rotate(-180 62 127)" fill="#FF8700"/>
<circle cx="52" cy="127" r="1" transform="rotate(-180 52 127)" fill="#F95200" fill-opacity="0.1"/>
<circle cx="42" cy="127" r="1" transform="rotate(-180 42 127)" fill="#F95200" fill-opacity="0.1"/>
<circle cx="32" cy="127" r="1" transform="rotate(-180 32 127)" fill="#FF8700"/>
<circle cx="22" cy="127" r="1" transform="rotate(-180 22 127)" fill="#FF8700" fill-opacity="0.1"/>
<circle cx="12" cy="127" r="1" transform="rotate(-180 12 127)" fill="#FF8700"/>
<circle cx="2" cy="127" r="1" transform="rotate(-180 2 127)" fill="#F95200" fill-opacity="0.1"/>
<circle cx="72" cy="117" r="1" transform="rotate(-180 72 117)" fill="#FF8700" fill-opacity="0.1"/>
<circle cx="62" cy="117" r="1" transform="rotate(-180 62 117)" fill="#F95200" fill-opacity="0.1"/>
<circle cx="52" cy="117" r="1" transform="rotate(-180 52 117)" fill="#FF8700"/>
<circle cx="42" cy="117" r="1" transform="rotate(-180 42 117)" fill="#F95200" fill-opacity="0.1"/>
<circle cx="32" cy="117" r="1" transform="rotate(-180 32 117)" fill="#FF8700"/>
<circle cx="22" cy="117" r="1" transform="rotate(-180 22 117)" fill="#F95200" fill-opacity="0.1"/>
<circle cx="12" cy="117" r="1" transform="rotate(-180 12 117)" fill="#F95200" fill-opacity="0.1"/>
<circle cx="2" cy="117" r="1" transform="rotate(-180 2 117)" fill="#FF8700"/>
<circle cx="72" cy="107" r="1" transform="rotate(-180 72 107)" fill="#FF8700"/>
<circle cx="62" cy="107" r="1" transform="rotate(-180 62 107)" fill="#FF8700" fill-opacity="0.1"/>
<circle cx="52" cy="107" r="1" transform="rotate(-180 52 107)" fill="#FF8700"/>
<circle cx="42" cy="107" r="1" transform="rotate(-180 42 107)" fill="#FF8700" fill-opacity="0.1"/>
<circle cx="32" cy="107" r="1" transform="rotate(-180 32 107)" fill="#F95200" fill-opacity="0.1"/>
<circle cx="22" cy="107" r="1" transform="rotate(-180 22 107)" fill="#FF8700"/>
<circle cx="12" cy="107" r="1" transform="rotate(-180 12 107)" fill="#FF8700" fill-opacity="0.1"/>
<circle cx="2" cy="107" r="1" transform="rotate(-180 2 107)" fill="#FF8700" fill-opacity="0.1"/>
<circle cx="72" cy="97.0002" r="1" transform="rotate(-180 72 97.0002)" fill="#FF8700"/>
<circle cx="62" cy="97.0002" r="1" transform="rotate(-180 62 97.0002)" fill="#FF8700"/>
<circle cx="52" cy="97.0002" r="1" transform="rotate(-180 52 97.0002)" fill="#FF8700" fill-opacity="0.1"/>
<circle cx="42" cy="97.0002" r="1" transform="rotate(-180 42 97.0002)" fill="#F95200" fill-opacity="0.1"/>
<circle cx="32" cy="97.0002" r="1" transform="rotate(-180 32 97.0002)" fill="#FF8700"/>
<circle cx="22" cy="97.0002" r="1" transform="rotate(-180 22 97.0002)" fill="#F95200" fill-opacity="0.1"/>
<circle cx="12" cy="97.0002" r="1" transform="rotate(-180 12 97.0002)" fill="#FF8700"/>
<circle cx="2" cy="97.0002" r="1" transform="rotate(-180 2 97.0002)" fill="#FF8700"/>
<circle cx="292" cy="87.0002" r="1" transform="rotate(-180 292 87.0002)" fill="#FF8700"/>
<circle cx="282" cy="87.0002" r="1" transform="rotate(-180 282 87.0002)" fill="#F95200" fill-opacity="0.1"/>
<circle cx="272" cy="87.0002" r="1" transform="rotate(-180 272 87.0002)" fill="#FF8700"/>
<circle cx="262" cy="87.0002" r="1" transform="rotate(-180 262 87.0002)" fill="#FF8700" fill-opacity="0.1"/>
<circle cx="252" cy="87.0002" r="1" transform="rotate(-180 252 87.0002)" fill="#FF8700" fill-opacity="0.1"/>
<circle cx="242" cy="87.0002" r="1" transform="rotate(-180 242 87.0002)" fill="#FF8700"/>
<circle cx="232" cy="87.0002" r="1" transform="rotate(-180 232 87.0002)" fill="#F95200" fill-opacity="0.1"/>
<circle cx="222" cy="87.0002" r="1" transform="rotate(-180 222 87.0002)" fill="#FF8700"/>
<circle cx="292" cy="77.0002" r="1" transform="rotate(-180 292 77.0002)" fill="#F95200" fill-opacity="0.1"/>
<circle cx="282" cy="77.0002" r="1" transform="rotate(-180 282 77.0002)" fill="#FF8700"/>
<circle cx="272" cy="77.0002" r="1" transform="rotate(-180 272 77.0002)" fill="#FF8700"/>
<circle cx="262" cy="77.0002" r="1" transform="rotate(-180 262 77.0002)" fill="#FF8700" fill-opacity="0.1"/>
<circle cx="252" cy="77.0002" r="1" transform="rotate(-180 252 77.0002)" fill="#FF8700"/>
<circle cx="242" cy="77.0002" r="1" transform="rotate(-180 242 77.0002)" fill="#F95200" fill-opacity="0.1"/>
<circle cx="232" cy="77.0002" r="1" transform="rotate(-180 232 77.0002)" fill="#FF8700"/>
<circle cx="222" cy="77.0002" r="1" transform="rotate(-180 222 77.0002)" fill="#FF8700" fill-opacity="0.1"/>
<circle cx="292" cy="67.0002" r="1" transform="rotate(-180 292 67.0002)" fill="#FF8700" fill-opacity="0.1"/>
<circle cx="282" cy="67.0002" r="1" transform="rotate(-180 282 67.0002)" fill="#FF8700" fill-opacity="0.1"/>
<circle cx="272" cy="67.0002" r="1" transform="rotate(-180 272 67.0002)" fill="#F95200" fill-opacity="0.1"/>
<circle cx="262" cy="67.0002" r="1" transform="rotate(-180 262 67.0002)" fill="#F95200" fill-opacity="0.1"/>
<circle cx="252" cy="67.0002" r="1" transform="rotate(-180 252 67.0002)" fill="#FF8700"/>
<circle cx="242" cy="67.0002" r="1" transform="rotate(-180 242 67.0002)" fill="#FF8700" fill-opacity="0.1"/>
<circle cx="232" cy="67.0002" r="1" transform="rotate(-180 232 67.0002)" fill="#FF8700"/>
<circle cx="222" cy="67.0002" r="1" transform="rotate(-180 222 67.0002)" fill="#F95200" fill-opacity="0.1"/>
<circle cx="292" cy="57.0002" r="1" transform="rotate(-180 292 57.0002)" fill="#FF8700"/>
<circle cx="282" cy="57.0002" r="1" transform="rotate(-180 282 57.0002)" fill="#FF8700"/>
<circle cx="272" cy="57.0002" r="1" transform="rotate(-180 272 57.0002)" fill="#F95200" fill-opacity="0.1"/>
<circle cx="262" cy="57.0002" r="1" transform="rotate(-180 262 57.0002)" fill="#FF8700"/>
<circle cx="252" cy="57.0002" r="1" transform="rotate(-180 252 57.0002)" fill="#FF8700" fill-opacity="0.1"/>
<circle cx="242" cy="57.0002" r="1" transform="rotate(-180 242 57.0002)" fill="#FF8700"/>
<circle cx="232" cy="57.0002" r="1" transform="rotate(-180 232 57.0002)" fill="#F95200" fill-opacity="0.1"/>
<circle cx="222" cy="57.0002" r="1" transform="rotate(-180 222 57.0002)" fill="#F95200" fill-opacity="0.1"/>
<circle cx="212" cy="87.0002" r="1" transform="rotate(-180 212 87.0002)" fill="#FF8700"/>
<circle cx="202" cy="87.0002" r="1" transform="rotate(-180 202 87.0002)" fill="#FF8700"/>
<circle cx="192" cy="87.0002" r="1" transform="rotate(-180 192 87.0002)" fill="#F95200" fill-opacity="0.1"/>
<circle cx="182" cy="87.0002" r="1" transform="rotate(-180 182 87.0002)" fill="#F95200" fill-opacity="0.1"/>
<circle cx="172" cy="87.0002" r="1" transform="rotate(-180 172 87.0002)" fill="#FF8700"/>
<circle cx="162" cy="87.0002" r="1" transform="rotate(-180 162 87.0002)" fill="#FF8700" fill-opacity="0.1"/>
<circle cx="152" cy="87.0002" r="1" transform="rotate(-180 152 87.0002)" fill="#FF8700"/>
<circle cx="142" cy="87.0002" r="1" transform="rotate(-180 142 87.0002)" fill="#F95200" fill-opacity="0.1"/>
<circle cx="132" cy="87.0002" r="1" transform="rotate(-180 132 87.0002)" fill="#FF8700"/>
<circle cx="122" cy="87.0002" r="1" transform="rotate(-180 122 87.0002)" fill="#FF8700" fill-opacity="0.1"/>
<circle cx="112" cy="87.0002" r="1" transform="rotate(-180 112 87.0002)" fill="#FF8700" fill-opacity="0.1"/>
<circle cx="102" cy="87.0002" r="1" transform="rotate(-180 102 87.0002)" fill="#FF8700"/>
<circle cx="92" cy="87.0002" r="1" transform="rotate(-180 92 87.0002)" fill="#F95200" fill-opacity="0.1"/>
<circle cx="82" cy="87.0002" r="1" transform="rotate(-180 82 87.0002)" fill="#FF8700"/>
<circle cx="212" cy="77.0002" r="1" transform="rotate(-180 212 77.0002)" fill="#FF8700" fill-opacity="0.1"/>
<circle cx="202" cy="77.0002" r="1" transform="rotate(-180 202 77.0002)" fill="#F95200" fill-opacity="0.1"/>
<circle cx="192" cy="77.0002" r="1" transform="rotate(-180 192 77.0002)" fill="#FF8700"/>
<circle cx="182" cy="77.0002" r="1" transform="rotate(-180 182 77.0002)" fill="#F95200" fill-opacity="0.1"/>
<circle cx="172" cy="77.0002" r="1" transform="rotate(-180 172 77.0002)" fill="#FF8700"/>
<circle cx="162" cy="77.0002" r="1" transform="rotate(-180 162 77.0002)" fill="#F95200" fill-opacity="0.1"/>
<circle cx="152" cy="77.0002" r="1" transform="rotate(-180 152 77.0002)" fill="#F95200" fill-opacity="0.1"/>
<circle cx="142" cy="77.0002" r="1" transform="rotate(-180 142 77.0002)" fill="#FF8700"/>
<circle cx="132" cy="77.0002" r="1" transform="rotate(-180 132 77.0002)" fill="#FF8700"/>
<circle cx="122" cy="77.0002" r="1" transform="rotate(-180 122 77.0002)" fill="#FF8700" fill-opacity="0.1"/>
<circle cx="112" cy="77.0002" r="1" transform="rotate(-180 112 77.0002)" fill="#FF8700"/>
<circle cx="102" cy="77.0002" r="1" transform="rotate(-180 102 77.0002)" fill="#F95200" fill-opacity="0.1"/>
<circle cx="92" cy="77.0002" r="1" transform="rotate(-180 92 77.0002)" fill="#FF8700"/>
<circle cx="82" cy="77.0002" r="1" transform="rotate(-180 82 77.0002)" fill="#FF8700" fill-opacity="0.1"/>
<circle cx="212" cy="67.0002" r="1" transform="rotate(-180 212 67.0002)" fill="#FF8700"/>
<circle cx="202" cy="67.0002" r="1" transform="rotate(-180 202 67.0002)" fill="#FF8700" fill-opacity="0.1"/>
<circle cx="192" cy="67.0002" r="1" transform="rotate(-180 192 67.0002)" fill="#FF8700"/>
<circle cx="182" cy="67.0002" r="1" transform="rotate(-180 182 67.0002)" fill="#FF8700" fill-opacity="0.1"/>
<circle cx="172" cy="67.0002" r="1" transform="rotate(-180 172 67.0002)" fill="#F95200" fill-opacity="0.1"/>
<circle cx="162" cy="67.0002" r="1" transform="rotate(-180 162 67.0002)" fill="#FF8700"/>
<circle cx="152" cy="67.0002" r="1" transform="rotate(-180 152 67.0002)" fill="#FF8700" fill-opacity="0.1"/>
<circle cx="142" cy="67.0002" r="1" transform="rotate(-180 142 67.0002)" fill="#FF8700" fill-opacity="0.1"/>
<circle cx="132" cy="67.0002" r="1" transform="rotate(-180 132 67.0002)" fill="#F95200" fill-opacity="0.1"/>
<circle cx="122" cy="67.0002" r="1" transform="rotate(-180 122 67.0002)" fill="#F95200" fill-opacity="0.1"/>
<circle cx="112" cy="67.0002" r="1" transform="rotate(-180 112 67.0002)" fill="#FF8700"/>
<circle cx="102" cy="67.0002" r="1" transform="rotate(-180 102 67.0002)" fill="#FF8700" fill-opacity="0.1"/>
<circle cx="92" cy="67.0002" r="1" transform="rotate(-180 92 67.0002)" fill="#FF8700"/>
<circle cx="82" cy="67.0002" r="1" transform="rotate(-180 82 67.0002)" fill="#F95200" fill-opacity="0.1"/>
<circle cx="212" cy="57.0002" r="1" transform="rotate(-180 212 57.0002)" fill="#FF8700"/>
<circle cx="202" cy="57.0002" r="1" transform="rotate(-180 202 57.0002)" fill="#FF8700"/>
<circle cx="192" cy="57.0002" r="1" transform="rotate(-180 192 57.0002)" fill="#FF8700" fill-opacity="0.1"/>
<circle cx="182" cy="57.0002" r="1" transform="rotate(-180 182 57.0002)" fill="#F95200" fill-opacity="0.1"/>
<circle cx="172" cy="57.0002" r="1" transform="rotate(-180 172 57.0002)" fill="#FF8700"/>
<circle cx="162" cy="57.0002" r="1" transform="rotate(-180 162 57.0002)" fill="#F95200" fill-opacity="0.1"/>
<circle cx="152" cy="57.0002" r="1" transform="rotate(-180 152 57.0002)" fill="#FF8700"/>
<circle cx="142" cy="57.0002" r="1" transform="rotate(-180 142 57.0002)" fill="#FF8700"/>
<circle cx="132" cy="57.0002" r="1" transform="rotate(-180 132 57.0002)" fill="#F95200" fill-opacity="0.1"/>
<circle cx="122" cy="57.0002" r="1" transform="rotate(-180 122 57.0002)" fill="#FF8700"/>
<circle cx="112" cy="57.0002" r="1" transform="rotate(-180 112 57.0002)" fill="#FF8700" fill-opacity="0.1"/>
<circle cx="102" cy="57.0002" r="1" transform="rotate(-180 102 57.0002)" fill="#FF8700"/>
<circle cx="92" cy="57.0002" r="1" transform="rotate(-180 92 57.0002)" fill="#F95200" fill-opacity="0.1"/>
<circle cx="82" cy="57.0002" r="1" transform="rotate(-180 82 57.0002)" fill="#F95200" fill-opacity="0.1"/>
<circle cx="72" cy="87.0002" r="1" transform="rotate(-180 72 87.0002)" fill="#FF8700"/>
<circle cx="62" cy="87.0002" r="1" transform="rotate(-180 62 87.0002)" fill="#FF8700"/>
<circle cx="52" cy="87.0002" r="1" transform="rotate(-180 52 87.0002)" fill="#F95200" fill-opacity="0.1"/>
<circle cx="42" cy="87.0002" r="1" transform="rotate(-180 42 87.0002)" fill="#F95200" fill-opacity="0.1"/>
<circle cx="32" cy="87.0002" r="1" transform="rotate(-180 32 87.0002)" fill="#FF8700"/>
<circle cx="22" cy="87.0002" r="1" transform="rotate(-180 22 87.0002)" fill="#FF8700" fill-opacity="0.1"/>
<circle cx="12" cy="87.0002" r="1" transform="rotate(-180 12 87.0002)" fill="#FF8700"/>
<circle cx="2.00002" cy="87.0002" r="1" transform="rotate(-180 2.00002 87.0002)" fill="#F95200" fill-opacity="0.1"/>
<circle cx="72" cy="77.0002" r="1" transform="rotate(-180 72 77.0002)" fill="#FF8700" fill-opacity="0.1"/>
<circle cx="62" cy="77.0002" r="1" transform="rotate(-180 62 77.0002)" fill="#F95200" fill-opacity="0.1"/>
<circle cx="52" cy="77.0002" r="1" transform="rotate(-180 52 77.0002)" fill="#FF8700"/>
<circle cx="42" cy="77.0002" r="1" transform="rotate(-180 42 77.0002)" fill="#F95200" fill-opacity="0.1"/>
<circle cx="32" cy="77.0002" r="1" transform="rotate(-180 32 77.0002)" fill="#FF8700"/>
<circle cx="22" cy="77.0002" r="1" transform="rotate(-180 22 77.0002)" fill="#F95200" fill-opacity="0.1"/>
<circle cx="12" cy="77.0002" r="1" transform="rotate(-180 12 77.0002)" fill="#F95200" fill-opacity="0.1"/>
<circle cx="2.00002" cy="77.0002" r="1" transform="rotate(-180 2.00002 77.0002)" fill="#FF8700"/>
<circle cx="72" cy="67.0002" r="1" transform="rotate(-180 72 67.0002)" fill="#FF8700"/>
<circle cx="62" cy="67.0002" r="1" transform="rotate(-180 62 67.0002)" fill="#FF8700" fill-opacity="0.1"/>
<circle cx="52" cy="67.0002" r="1" transform="rotate(-180 52 67.0002)" fill="#FF8700"/>
<circle cx="42" cy="67.0002" r="1" transform="rotate(-180 42 67.0002)" fill="#FF8700" fill-opacity="0.1"/>
<circle cx="32" cy="67.0002" r="1" transform="rotate(-180 32 67.0002)" fill="#F95200" fill-opacity="0.1"/>
<circle cx="22" cy="67.0002" r="1" transform="rotate(-180 22 67.0002)" fill="#FF8700"/>
<circle cx="12" cy="67.0002" r="1" transform="rotate(-180 12 67.0002)" fill="#FF8700" fill-opacity="0.1"/>
<circle cx="2.00002" cy="67.0002" r="1" transform="rotate(-180 2.00002 67.0002)" fill="#FF8700" fill-opacity="0.1"/>
<circle cx="72" cy="57.0002" r="1" transform="rotate(-180 72 57.0002)" fill="#FF8700"/>
<circle cx="62" cy="57.0002" r="1" transform="rotate(-180 62 57.0002)" fill="#FF8700"/>
<circle cx="52" cy="57.0002" r="1" transform="rotate(-180 52 57.0002)" fill="#FF8700" fill-opacity="0.1"/>
<circle cx="42" cy="57.0002" r="1" transform="rotate(-180 42 57.0002)" fill="#F95200" fill-opacity="0.1"/>
<circle cx="32" cy="57.0002" r="1" transform="rotate(-180 32 57.0002)" fill="#FF8700"/>
<circle cx="22" cy="57.0002" r="1" transform="rotate(-180 22 57.0002)" fill="#F95200" fill-opacity="0.1"/>
<circle cx="12" cy="57.0002" r="1" transform="rotate(-180 12 57.0002)" fill="#FF8700"/>
<circle cx="2.00002" cy="57.0002" r="1" transform="rotate(-180 2.00002 57.0002)" fill="#FF8700"/>
<circle cx="292" cy="47.0002" r="1" transform="rotate(-180 292 47.0002)" fill="#FF8700"/>
<circle cx="282" cy="47.0002" r="1" transform="rotate(-180 282 47.0002)" fill="#F95200" fill-opacity="0.1"/>
<circle cx="272" cy="47.0002" r="1" transform="rotate(-180 272 47.0002)" fill="#FF8700"/>
<circle cx="262" cy="47.0002" r="1" transform="rotate(-180 262 47.0002)" fill="#FF8700" fill-opacity="0.1"/>
<circle cx="252" cy="47.0002" r="1" transform="rotate(-180 252 47.0002)" fill="#FF8700" fill-opacity="0.1"/>
<circle cx="242" cy="47.0002" r="1" transform="rotate(-180 242 47.0002)" fill="#FF8700"/>
<circle cx="232" cy="47.0002" r="1" transform="rotate(-180 232 47.0002)" fill="#F95200" fill-opacity="0.1"/>
<circle cx="222" cy="47.0002" r="1" transform="rotate(-180 222 47.0002)" fill="#FF8700"/>
<circle cx="292" cy="37.0002" r="1" transform="rotate(-180 292 37.0002)" fill="#F95200" fill-opacity="0.1"/>
<circle cx="282" cy="37.0002" r="1" transform="rotate(-180 282 37.0002)" fill="#FF8700"/>
<circle cx="272" cy="37.0002" r="1" transform="rotate(-180 272 37.0002)" fill="#FF8700"/>
<circle cx="262" cy="37.0002" r="1" transform="rotate(-180 262 37.0002)" fill="#FF8700" fill-opacity="0.1"/>
<circle cx="252" cy="37.0002" r="1" transform="rotate(-180 252 37.0002)" fill="#FF8700"/>
<circle cx="242" cy="37.0002" r="1" transform="rotate(-180 242 37.0002)" fill="#F95200" fill-opacity="0.1"/>
<circle cx="232" cy="37.0002" r="1" transform="rotate(-180 232 37.0002)" fill="#FF8700"/>
<circle cx="222" cy="37.0002" r="1" transform="rotate(-180 222 37.0002)" fill="#FF8700" fill-opacity="0.1"/>
<circle cx="292" cy="27.0002" r="1" transform="rotate(-180 292 27.0002)" fill="#FF8700" fill-opacity="0.1"/>
<circle cx="282" cy="27.0002" r="1" transform="rotate(-180 282 27.0002)" fill="#FF8700" fill-opacity="0.1"/>
<circle cx="272" cy="27.0002" r="1" transform="rotate(-180 272 27.0002)" fill="#F95200" fill-opacity="0.1"/>
<circle cx="262" cy="27.0002" r="1" transform="rotate(-180 262 27.0002)" fill="#F95200" fill-opacity="0.1"/>
<circle cx="252" cy="27.0002" r="1" transform="rotate(-180 252 27.0002)" fill="#FF8700"/>
<circle cx="242" cy="27.0002" r="1" transform="rotate(-180 242 27.0002)" fill="#FF8700" fill-opacity="0.1"/>
<circle cx="232" cy="27.0002" r="1" transform="rotate(-180 232 27.0002)" fill="#FF8700"/>
<circle cx="222" cy="27.0002" r="1" transform="rotate(-180 222 27.0002)" fill="#F95200" fill-opacity="0.1"/>
<circle cx="292" cy="17.0002" r="1" transform="rotate(-180 292 17.0002)" fill="#FF8700"/>
<circle cx="282" cy="17.0002" r="1" transform="rotate(-180 282 17.0002)" fill="#FF8700"/>
<circle cx="272" cy="17.0002" r="1" transform="rotate(-180 272 17.0002)" fill="#F95200" fill-opacity="0.1"/>
<circle cx="262" cy="17.0002" r="1" transform="rotate(-180 262 17.0002)" fill="#FF8700"/>
<circle cx="252" cy="17.0002" r="1" transform="rotate(-180 252 17.0002)" fill="#FF8700" fill-opacity="0.1"/>
<circle cx="242" cy="17.0002" r="1" transform="rotate(-180 242 17.0002)" fill="#FF8700"/>
<circle cx="232" cy="17.0002" r="1" transform="rotate(-180 232 17.0002)" fill="#F95200" fill-opacity="0.1"/>
<circle cx="222" cy="17.0002" r="1" transform="rotate(-180 222 17.0002)" fill="#F95200" fill-opacity="0.1"/>
<circle cx="212" cy="47.0002" r="1" transform="rotate(-180 212 47.0002)" fill="#FF8700"/>
<circle cx="202" cy="47.0002" r="1" transform="rotate(-180 202 47.0002)" fill="#FF8700"/>
<circle cx="192" cy="47.0002" r="1" transform="rotate(-180 192 47.0002)" fill="#F95200" fill-opacity="0.1"/>
<circle cx="182" cy="47.0002" r="1" transform="rotate(-180 182 47.0002)" fill="#F95200" fill-opacity="0.1"/>
<circle cx="172" cy="47.0002" r="1" transform="rotate(-180 172 47.0002)" fill="#FF8700"/>
<circle cx="162" cy="47.0002" r="1" transform="rotate(-180 162 47.0002)" fill="#FF8700" fill-opacity="0.1"/>
<circle cx="152" cy="47.0002" r="1" transform="rotate(-180 152 47.0002)" fill="#FF8700"/>
<circle cx="142" cy="47.0002" r="1" transform="rotate(-180 142 47.0002)" fill="#F95200" fill-opacity="0.1"/>
<circle cx="132" cy="47.0002" r="1" transform="rotate(-180 132 47.0002)" fill="#FF8700"/>
<circle cx="122" cy="47.0002" r="1" transform="rotate(-180 122 47.0002)" fill="#FF8700" fill-opacity="0.1"/>
<circle cx="112" cy="47.0002" r="1" transform="rotate(-180 112 47.0002)" fill="#FF8700" fill-opacity="0.1"/>
<circle cx="102" cy="47.0002" r="1" transform="rotate(-180 102 47.0002)" fill="#FF8700"/>
<circle cx="92" cy="47.0002" r="1" transform="rotate(-180 92 47.0002)" fill="#F95200" fill-opacity="0.1"/>
<circle cx="82" cy="47.0002" r="1" transform="rotate(-180 82 47.0002)" fill="#FF8700"/>
<circle cx="212" cy="37.0002" r="1" transform="rotate(-180 212 37.0002)" fill="#FF8700" fill-opacity="0.1"/>
<circle cx="202" cy="37.0002" r="1" transform="rotate(-180 202 37.0002)" fill="#F95200" fill-opacity="0.1"/>
<circle cx="192" cy="37.0002" r="1" transform="rotate(-180 192 37.0002)" fill="#FF8700"/>
<circle cx="182" cy="37.0002" r="1" transform="rotate(-180 182 37.0002)" fill="#F95200" fill-opacity="0.1"/>
<circle cx="172" cy="37.0002" r="1" transform="rotate(-180 172 37.0002)" fill="#FF8700"/>
<circle cx="162" cy="37.0002" r="1" transform="rotate(-180 162 37.0002)" fill="#F95200" fill-opacity="0.1"/>
<circle cx="152" cy="37.0002" r="1" transform="rotate(-180 152 37.0002)" fill="#F95200" fill-opacity="0.1"/>
<circle cx="142" cy="37.0002" r="1" transform="rotate(-180 142 37.0002)" fill="#FF8700"/>
<circle cx="132" cy="37.0002" r="1" transform="rotate(-180 132 37.0002)" fill="#FF8700"/>
<circle cx="122" cy="37.0002" r="1" transform="rotate(-180 122 37.0002)" fill="#FF8700" fill-opacity="0.1"/>
<circle cx="112" cy="37.0002" r="1" transform="rotate(-180 112 37.0002)" fill="#FF8700"/>
<circle cx="102" cy="37.0002" r="1" transform="rotate(-180 102 37.0002)" fill="#F95200" fill-opacity="0.1"/>
<circle cx="92" cy="37.0002" r="1" transform="rotate(-180 92 37.0002)" fill="#FF8700"/>
<circle cx="82" cy="37.0002" r="1" transform="rotate(-180 82 37.0002)" fill="#FF8700" fill-opacity="0.1"/>
<circle cx="212" cy="27.0002" r="1" transform="rotate(-180 212 27.0002)" fill="#FF8700"/>
<circle cx="202" cy="27.0002" r="1" transform="rotate(-180 202 27.0002)" fill="#FF8700" fill-opacity="0.1"/>
<circle cx="192" cy="27.0002" r="1" transform="rotate(-180 192 27.0002)" fill="#FF8700"/>
<circle cx="182" cy="27.0002" r="1" transform="rotate(-180 182 27.0002)" fill="#FF8700" fill-opacity="0.1"/>
<circle cx="172" cy="27.0002" r="1" transform="rotate(-180 172 27.0002)" fill="#F95200" fill-opacity="0.1"/>
<circle cx="162" cy="27.0002" r="1" transform="rotate(-180 162 27.0002)" fill="#FF8700"/>
<circle cx="152" cy="27.0002" r="1" transform="rotate(-180 152 27.0002)" fill="#FF8700" fill-opacity="0.1"/>
<circle cx="142" cy="27.0002" r="1" transform="rotate(-180 142 27.0002)" fill="#FF8700" fill-opacity="0.1"/>
<circle cx="132" cy="27.0002" r="1" transform="rotate(-180 132 27.0002)" fill="#F95200" fill-opacity="0.1"/>
<circle cx="122" cy="27.0002" r="1" transform="rotate(-180 122 27.0002)" fill="#F95200" fill-opacity="0.1"/>
<circle cx="112" cy="27.0002" r="1" transform="rotate(-180 112 27.0002)" fill="#FF8700"/>
<circle cx="102" cy="27.0002" r="1" transform="rotate(-180 102 27.0002)" fill="#FF8700" fill-opacity="0.1"/>
<circle cx="92" cy="27.0002" r="1" transform="rotate(-180 92 27.0002)" fill="#FF8700"/>
<circle cx="82" cy="27.0002" r="1" transform="rotate(-180 82 27.0002)" fill="#F95200" fill-opacity="0.1"/>
<circle cx="212" cy="17.0002" r="1" transform="rotate(-180 212 17.0002)" fill="#FF8700"/>
<circle cx="202" cy="17.0002" r="1" transform="rotate(-180 202 17.0002)" fill="#FF8700"/>
<circle cx="192" cy="17.0002" r="1" transform="rotate(-180 192 17.0002)" fill="#FF8700" fill-opacity="0.1"/>
<circle cx="182" cy="17.0002" r="1" transform="rotate(-180 182 17.0002)" fill="#F95200" fill-opacity="0.1"/>
<circle cx="172" cy="17.0002" r="1" transform="rotate(-180 172 17.0002)" fill="#FF8700"/>
<circle cx="162" cy="17.0002" r="1" transform="rotate(-180 162 17.0002)" fill="#F95200" fill-opacity="0.1"/>
<circle cx="152" cy="17.0002" r="1" transform="rotate(-180 152 17.0002)" fill="#FF8700"/>
<circle cx="142" cy="17.0002" r="1" transform="rotate(-180 142 17.0002)" fill="#FF8700"/>
<circle cx="132" cy="17.0002" r="1" transform="rotate(-180 132 17.0002)" fill="#F95200" fill-opacity="0.1"/>
<circle cx="122" cy="17.0002" r="1" transform="rotate(-180 122 17.0002)" fill="#FF8700"/>
<circle cx="112" cy="17.0002" r="1" transform="rotate(-180 112 17.0002)" fill="#FF8700" fill-opacity="0.1"/>
<circle cx="102" cy="17.0002" r="1" transform="rotate(-180 102 17.0002)" fill="#FF8700"/>
<circle cx="92" cy="17.0002" r="1" transform="rotate(-180 92 17.0002)" fill="#F95200" fill-opacity="0.1"/>
<circle cx="82" cy="17.0002" r="1" transform="rotate(-180 82 17.0002)" fill="#F95200" fill-opacity="0.1"/>
<circle cx="72" cy="47.0002" r="1" transform="rotate(-180 72 47.0002)" fill="#FF8700"/>
<circle cx="62" cy="47.0002" r="1" transform="rotate(-180 62 47.0002)" fill="#FF8700"/>
<circle cx="52" cy="47.0002" r="1" transform="rotate(-180 52 47.0002)" fill="#F95200" fill-opacity="0.1"/>
<circle cx="42" cy="47.0002" r="1" transform="rotate(-180 42 47.0002)" fill="#F95200" fill-opacity="0.1"/>
<circle cx="32" cy="47.0002" r="1" transform="rotate(-180 32 47.0002)" fill="#FF8700"/>
<circle cx="22" cy="47.0002" r="1" transform="rotate(-180 22 47.0002)" fill="#FF8700" fill-opacity="0.1"/>
<circle cx="12" cy="47.0002" r="1" transform="rotate(-180 12 47.0002)" fill="#FF8700"/>
<circle cx="2.00002" cy="47.0002" r="1" transform="rotate(-180 2.00002 47.0002)" fill="#F95200" fill-opacity="0.1"/>
<circle cx="72" cy="37.0002" r="1" transform="rotate(-180 72 37.0002)" fill="#FF8700" fill-opacity="0.1"/>
<circle cx="62" cy="37.0002" r="1" transform="rotate(-180 62 37.0002)" fill="#F95200" fill-opacity="0.1"/>
<circle cx="52" cy="37.0002" r="1" transform="rotate(-180 52 37.0002)" fill="#FF8700"/>
<circle cx="42" cy="37.0002" r="1" transform="rotate(-180 42 37.0002)" fill="#F95200" fill-opacity="0.1"/>
<circle cx="32" cy="37.0002" r="1" transform="rotate(-180 32 37.0002)" fill="#FF8700"/>
<circle cx="22" cy="37.0002" r="1" transform="rotate(-180 22 37.0002)" fill="#F95200" fill-opacity="0.1"/>
<circle cx="12" cy="37.0002" r="1" transform="rotate(-180 12 37.0002)" fill="#F95200" fill-opacity="0.1"/>
<circle cx="2.00002" cy="37.0002" r="1" transform="rotate(-180 2.00002 37.0002)" fill="#FF8700"/>
<circle cx="72" cy="27.0002" r="1" transform="rotate(-180 72 27.0002)" fill="#FF8700"/>
<circle cx="62" cy="27.0002" r="1" transform="rotate(-180 62 27.0002)" fill="#FF8700" fill-opacity="0.1"/>
<circle cx="52" cy="27.0002" r="1" transform="rotate(-180 52 27.0002)" fill="#FF8700"/>
<circle cx="42" cy="27.0002" r="1" transform="rotate(-180 42 27.0002)" fill="#FF8700" fill-opacity="0.1"/>
<circle cx="32" cy="27.0002" r="1" transform="rotate(-180 32 27.0002)" fill="#F95200" fill-opacity="0.1"/>
<circle cx="22" cy="27.0002" r="1" transform="rotate(-180 22 27.0002)" fill="#FF8700"/>
<circle cx="12" cy="27.0002" r="1" transform="rotate(-180 12 27.0002)" fill="#FF8700" fill-opacity="0.1"/>
<circle cx="2.00002" cy="27.0002" r="1" transform="rotate(-180 2.00002 27.0002)" fill="#FF8700" fill-opacity="0.1"/>
<circle cx="72" cy="17.0002" r="1" transform="rotate(-180 72 17.0002)" fill="#FF8700"/>
<circle cx="62" cy="17.0002" r="1" transform="rotate(-180 62 17.0002)" fill="#FF8700"/>
<circle cx="52" cy="17.0002" r="1" transform="rotate(-180 52 17.0002)" fill="#FF8700" fill-opacity="0.1"/>
<circle cx="42" cy="17.0002" r="1" transform="rotate(-180 42 17.0002)" fill="#F95200" fill-opacity="0.1"/>
<circle cx="32" cy="17.0002" r="1" transform="rotate(-180 32 17.0002)" fill="#FF8700"/>
<circle cx="22" cy="17.0002" r="1" transform="rotate(-180 22 17.0002)" fill="#F95200" fill-opacity="0.1"/>
<circle cx="12" cy="17.0002" r="1" transform="rotate(-180 12 17.0002)" fill="#FF8700"/>
<circle cx="2.00002" cy="17.0002" r="1" transform="rotate(-180 2.00002 17.0002)" fill="#FF8700"/>
<circle cx="292" cy="7.00023" r="1" transform="rotate(-180 292 7.00023)" fill="#FF8700"/>
<circle cx="282" cy="7.00023" r="1" transform="rotate(-180 282 7.00023)" fill="#F95200" fill-opacity="0.1"/>
<circle cx="272" cy="7.00023" r="1" transform="rotate(-180 272 7.00023)" fill="#FF8700"/>
<circle cx="262" cy="7.00023" r="1" transform="rotate(-180 262 7.00023)" fill="#FF8700" fill-opacity="0.1"/>
<circle cx="252" cy="7.00023" r="1" transform="rotate(-180 252 7.00023)" fill="#FF8700" fill-opacity="0.1"/>
<circle cx="242" cy="7.00023" r="1" transform="rotate(-180 242 7.00023)" fill="#FF8700"/>
<circle cx="232" cy="7.00023" r="1" transform="rotate(-180 232 7.00023)" fill="#F95200" fill-opacity="0.1"/>
<circle cx="222" cy="7.00023" r="1" transform="rotate(-180 222 7.00023)" fill="#FF8700"/>
<circle cx="212" cy="7.00022" r="1" transform="rotate(-180 212 7.00022)" fill="#FF8700"/>
<circle cx="202" cy="7.00022" r="1" transform="rotate(-180 202 7.00022)" fill="#FF8700"/>
<circle cx="192" cy="7.00022" r="1" transform="rotate(-180 192 7.00022)" fill="#F95200" fill-opacity="0.1"/>
<circle cx="182" cy="7.00022" r="1" transform="rotate(-180 182 7.00022)" fill="#F95200" fill-opacity="0.1"/>
<circle cx="172" cy="7.00022" r="1" transform="rotate(-180 172 7.00022)" fill="#FF8700"/>
<circle cx="162" cy="7.00021" r="1" transform="rotate(-180 162 7.00021)" fill="#FF8700" fill-opacity="0.1"/>
<circle cx="152" cy="7.00021" r="1" transform="rotate(-180 152 7.00021)" fill="#FF8700"/>
<circle cx="142" cy="7.00021" r="1" transform="rotate(-180 142 7.00021)" fill="#F95200" fill-opacity="0.1"/>
<circle cx="132" cy="7.00021" r="1" transform="rotate(-180 132 7.00021)" fill="#FF8700"/>
<circle cx="122" cy="7.00021" r="1" transform="rotate(-180 122 7.00021)" fill="#FF8700" fill-opacity="0.1"/>
<circle cx="112" cy="7.00021" r="1" transform="rotate(-180 112 7.00021)" fill="#FF8700" fill-opacity="0.1"/>
<circle cx="102" cy="7.00021" r="1" transform="rotate(-180 102 7.00021)" fill="#FF8700"/>
<circle cx="92" cy="7.00021" r="1" transform="rotate(-180 92 7.00021)" fill="#F95200" fill-opacity="0.1"/>
<circle cx="82" cy="7.00021" r="1" transform="rotate(-180 82 7.00021)" fill="#FF8700"/>
<circle cx="72" cy="7.00021" r="1" transform="rotate(-180 72 7.00021)" fill="#FF8700"/>
<circle cx="62" cy="7.00021" r="1" transform="rotate(-180 62 7.00021)" fill="#FF8700"/>
<circle cx="52" cy="7.00021" r="1" transform="rotate(-180 52 7.00021)" fill="#F95200" fill-opacity="0.1"/>
<circle cx="42" cy="7.00021" r="1" transform="rotate(-180 42 7.00021)" fill="#F95200" fill-opacity="0.1"/>
<circle cx="32" cy="7.00021" r="1" transform="rotate(-180 32 7.00021)" fill="#FF8700"/>
<circle cx="22" cy="7.00021" r="1" transform="rotate(-180 22 7.00021)" fill="#FF8700" fill-opacity="0.1"/>
<circle cx="12" cy="7.00021" r="1" transform="rotate(-180 12 7.00021)" fill="#FF8700"/>
<circle cx="2.00002" cy="7.00021" r="1" transform="rotate(-180 2.00002 7.00021)" fill="#F95200" fill-opacity="0.1"/>
</g>
<rect x="-8.5" y="-18.9998" width="312" height="187" fill="url(#paint1_linear_111_1954)"/>
</g>
<path d="M1 12.0002C1 5.64897 6.14873 0.500244 12.5 0.500244H279.75C286.101 0.500244 291.25 5.64897 291.25 12.0002V134C291.25 140.352 286.101 145.5 279.75 145.5H12.5C6.14872 145.5 1 140.352 1 134V12.0002Z" stroke="#FF8700" stroke-opacity="0.1"/>
<path d="M1 12.0002C1 5.64897 6.14873 0.500244 12.5 0.500244H279.75C286.101 0.500244 291.25 5.64897 291.25 12.0002V134C291.25 140.352 286.101 145.5 279.75 145.5H12.5C6.14872 145.5 1 140.352 1 134V12.0002Z" stroke="url(#paint2_radial_111_1954)"/>
<defs>
<radialGradient id="paint0_radial_111_1954" cx="0" cy="0" r="1" gradientUnits="userSpaceOnUse" gradientTransform="translate(275.404 -59.4184) rotate(110.781) scale(203.824 241.42)">
<stop stop-color="#FF8700"/>
<stop offset="1" stop-color="#FF8700" stop-opacity="0"/>
</radialGradient>
<linearGradient id="paint1_linear_111_1954" x1="-60" y1="75.0002" x2="334" y2="74.5003" gradientUnits="userSpaceOnUse">
<stop stop-color="#050505"/>
<stop offset="1" stop-color="#050505" stop-opacity="0"/>
</linearGradient>
<radialGradient id="paint2_radial_111_1954" cx="0" cy="0" r="1" gradientUnits="userSpaceOnUse" gradientTransform="translate(97.5833 4.66885) rotate(118.574) scale(50.7446 103.497)">
<stop stop-color="#FF8700"/>
<stop offset="1" stop-color="#FF8700" stop-opacity="0"/>
</radialGradient>
<clipPath id="clip0_111_1954">
<path d="M0.5 12.0002C0.5 5.37283 5.87258 0.000244141 12.5 0.000244141H279.75C286.377 0.000244141 291.75 5.37283 291.75 12.0002V134C291.75 140.628 286.377 146 279.75 146H12.5C5.87258 146 0.5 140.628 0.5 134V12.0002Z" fill="white"/>
</clipPath>
</defs>
</svg>
